<svg width="440" height="113" viewBox="0 0 440 113" fill="none" xmlns="http://www.w3.org/2000/svg">
<path d="M41.2257 86.6471L12.9904 26.3529H42.6962L71.5198 86.6471H41.2257Z" fill="#082DF7"/>
<path d="M88.8727 56.3529H59.4609L72.9904 26.3529H102.99L88.8727 56.3529Z" fill="#082DF7"/>
<path d="M411.138 81.3243C408.787 81.3243 406.617 80.8496 404.627 79.9C402.683 78.9052 401.01 77.5713 399.608 75.8983C398.206 74.18 397.166 72.2357 396.488 70.0652L396.013 80.5104H394.928V32.0826H396.284V57.4496C397.279 53.8322 399.065 50.9383 401.643 48.7678C404.265 46.5974 407.431 45.5122 411.138 45.5122C414.439 45.5122 417.265 46.3035 419.617 47.8861C422.013 49.4235 423.844 51.5487 425.111 54.2617C426.377 56.9296 427.01 60.0043 427.01 63.4861C427.01 66.9226 426.377 69.9974 425.111 72.7104C423.844 75.3783 422.036 77.4809 419.684 79.0183C417.333 80.5557 414.484 81.3243 411.138 81.3243ZM411.138 79.9678C413.942 79.9678 416.406 79.2896 418.531 77.933C420.702 76.5765 422.397 74.6548 423.618 72.1678C424.884 69.6809 425.517 66.7644 425.517 63.4183C425.517 60.027 424.884 57.0878 423.618 54.6009C422.397 52.1139 420.702 50.2148 418.531 48.9035C416.406 47.547 413.942 46.8687 411.138 46.8687C408.335 46.8687 405.848 47.5922 403.677 49.0391C401.552 50.4409 399.879 52.3852 398.658 54.8722C397.437 57.3591 396.827 60.2078 396.827 63.4183C396.827 66.5383 397.437 69.3643 398.658 71.8965C399.879 74.3835 401.552 76.3504 403.677 77.7974C405.848 79.2444 408.335 79.9678 411.138 79.9678Z" fill="white"/>
<path d="M374.533 81.3243C372.182 81.3243 370.056 80.8722 368.157 79.9678C366.303 79.0183 364.834 77.5487 363.749 75.5591C362.663 73.5243 362.121 70.8565 362.121 67.5557V46.3261H363.477V67.2165C363.477 71.6026 364.427 74.8357 366.326 76.9157C368.225 78.9504 371.006 79.9678 374.669 79.9678C377.065 79.9678 379.168 79.4026 380.976 78.2722C382.785 77.0965 384.209 75.4009 385.249 73.1852C386.289 70.9243 386.809 68.1661 386.809 64.9104V46.3261H388.166V80.5104H387.081L386.606 72.7783C385.43 75.853 383.757 78.0461 381.587 79.3574C379.416 80.6687 377.065 81.3243 374.533 81.3243Z" fill="white"/>
<path d="M354.651 80.5104V31.6757H356.007V80.5104H354.651Z" fill="white"/>
<path d="M331.214 81.3243C326.828 81.3243 322.984 80.307 319.683 78.2722C316.382 76.1922 313.828 73.3209 312.019 69.6583C310.256 65.9504 309.374 61.6548 309.374 56.7713C309.374 51.8426 310.256 47.547 312.019 43.8843C313.828 40.2217 316.382 37.373 319.683 35.3383C322.984 33.2583 326.828 32.2183 331.214 32.2183C336.233 32.2183 340.257 33.3487 343.287 35.6096C346.316 37.8704 348.351 41.0357 349.391 45.1052H347.899C346.949 41.6687 345.141 38.8878 342.473 36.7626C339.805 34.6374 336.052 33.5748 331.214 33.5748C327.235 33.5748 323.708 34.5017 320.633 36.3557C317.558 38.1643 315.162 40.8096 313.443 44.2913C311.725 47.7278 310.866 51.8878 310.866 56.7713C310.866 61.6096 311.725 65.7696 313.443 69.2513C315.162 72.6878 317.558 75.333 320.633 77.187C323.708 79.0409 327.235 79.9678 331.214 79.9678C335.962 79.9678 339.715 78.8826 342.473 76.7122C345.231 74.4965 347.04 71.6704 347.899 68.2339H349.391C348.351 72.3939 346.316 75.627 343.287 77.933C340.257 80.1939 336.233 81.3243 331.214 81.3243Z" fill="white"/>
<path d="M289.63 81.3243C286.374 81.3243 283.48 80.5783 280.948 79.0861C278.416 77.5939 276.426 75.5139 274.979 72.8461C273.577 70.1783 272.876 67.0809 272.876 63.5539C272.876 59.9365 273.577 56.7939 274.979 54.1261C276.426 51.413 278.416 49.3104 280.948 47.8183C283.48 46.2809 286.419 45.5122 289.765 45.5122C293.111 45.5122 295.983 46.2583 298.379 47.7504C300.776 49.2426 302.63 51.2322 303.941 53.7191C305.252 56.1609 305.908 58.8739 305.908 61.8583C305.908 62.3104 305.885 62.8078 305.84 63.3504C305.84 63.8478 305.817 64.413 305.772 65.0461H277.828V60.2304H299.125C298.99 57.3817 298.04 55.1661 296.276 53.5835C294.513 51.9557 292.32 51.1417 289.697 51.1417C287.843 51.1417 286.148 51.5713 284.61 52.4304C283.073 53.2443 281.83 54.4652 280.88 56.093C279.976 57.6757 279.523 59.6878 279.523 62.1296V64.0287C279.523 66.5609 279.976 68.7087 280.88 70.4722C281.83 72.1904 283.073 73.5017 284.61 74.4061C286.148 75.2652 287.821 75.6948 289.63 75.6948C291.8 75.6948 293.586 75.22 294.988 74.2704C296.39 73.3209 297.43 72.0322 298.108 70.4044H304.89C304.303 72.4844 303.308 74.3609 301.906 76.0339C300.504 77.6617 298.763 78.9504 296.683 79.9C294.649 80.8496 292.297 81.3243 289.63 81.3243Z" fill="white"/>
<path d="M251.973 80.5104V46.3261H258.078L258.688 52.7696C259.457 51.2322 260.452 49.9435 261.672 48.9035C262.893 47.8183 264.318 46.9817 265.946 46.3939C267.619 45.8061 269.518 45.5122 271.643 45.5122V52.7017H269.201C267.799 52.7017 266.466 52.8826 265.199 53.2444C263.933 53.5609 262.803 54.1261 261.808 54.94C260.859 55.7539 260.112 56.8617 259.57 58.2635C259.027 59.6652 258.756 61.4061 258.756 63.4861V80.5104H251.973Z" fill="white"/>
<path d="M229.683 81.3243C226.473 81.3243 223.579 80.5783 221.002 79.0861C218.47 77.5939 216.457 75.5139 214.965 72.8461C213.518 70.133 212.795 67.013 212.795 63.4861C212.795 59.8687 213.541 56.7261 215.033 54.0583C216.525 51.3452 218.56 49.2426 221.137 47.7504C223.715 46.2583 226.609 45.5122 229.819 45.5122C233.075 45.5122 235.969 46.2583 238.501 47.7504C241.033 49.2426 243.023 51.3226 244.47 53.9904C245.962 56.6583 246.708 59.8009 246.708 63.4183C246.708 67.0357 245.962 70.1783 244.47 72.8461C243.023 75.5139 241.01 77.5939 238.433 79.0861C235.856 80.5783 232.939 81.3243 229.683 81.3243ZM229.683 75.4913C231.537 75.4913 233.21 75.0391 234.703 74.1348C236.24 73.2304 237.461 71.8965 238.365 70.133C239.315 68.3244 239.79 66.0861 239.79 63.4183C239.79 60.7504 239.337 58.5348 238.433 56.7713C237.529 54.9626 236.308 53.6061 234.77 52.7017C233.278 51.7974 231.628 51.3452 229.819 51.3452C228.01 51.3452 226.337 51.7974 224.8 52.7017C223.263 53.6061 222.019 54.9626 221.07 56.7713C220.165 58.5348 219.713 60.7504 219.713 63.4183C219.713 66.0861 220.165 68.3244 221.07 70.133C222.019 71.8965 223.24 73.2304 224.732 74.1348C226.27 75.0391 227.92 75.4913 229.683 75.4913Z" fill="white"/>
<path d="M200.701 80.5104V31.6757H207.484V80.5104H200.701Z" fill="white"/>
<path d="M176.986 81.3243C174.183 81.3243 171.854 80.8496 170 79.9C168.146 78.9504 166.767 77.6843 165.863 76.1017C164.958 74.4739 164.506 72.733 164.506 70.8791C164.506 68.6183 165.094 66.6965 166.27 65.1139C167.445 63.4861 169.118 62.2426 171.289 61.3835C173.459 60.5243 176.059 60.0948 179.089 60.0948H187.974C187.974 58.1052 187.68 56.4548 187.092 55.1435C186.505 53.8322 185.623 52.86 184.447 52.227C183.317 51.5487 181.87 51.2096 180.106 51.2096C178.072 51.2096 176.331 51.707 174.884 52.7017C173.437 53.6513 172.532 55.0757 172.171 56.9748H165.388C165.659 54.5783 166.473 52.5435 167.83 50.8704C169.232 49.1522 171.018 47.8409 173.188 46.9365C175.358 45.987 177.665 45.5122 180.106 45.5122C183.317 45.5122 186.007 46.0774 188.178 47.2078C190.348 48.3383 191.976 49.9435 193.061 52.0235C194.192 54.0583 194.757 56.5 194.757 59.3487V80.5104H188.856L188.313 74.7452C187.816 75.6496 187.228 76.5087 186.55 77.3226C185.872 78.1365 185.058 78.8374 184.108 79.4252C183.204 80.013 182.141 80.4652 180.92 80.7817C179.745 81.1435 178.433 81.3243 176.986 81.3243ZM178.275 75.8304C179.722 75.8304 181.033 75.5365 182.209 74.9487C183.385 74.3609 184.379 73.5696 185.193 72.5748C186.052 71.5348 186.685 70.3817 187.092 69.1157C187.545 67.8043 187.793 66.4704 187.838 65.1139V64.9104H179.767C177.823 64.9104 176.24 65.1591 175.019 65.6565C173.844 66.1087 172.985 66.7417 172.442 67.5557C171.899 68.3696 171.628 69.3191 171.628 70.4044C171.628 71.5348 171.877 72.507 172.374 73.3209C172.917 74.0896 173.685 74.7 174.68 75.1522C175.675 75.6043 176.873 75.8304 178.275 75.8304Z" fill="white"/>
<path d="M140.625 80.5104L122.99 33.0322H130.316L144.695 73.4565L159.209 33.0322H166.399L148.764 80.5104H140.625Z" fill="white"/>
</svg>
